<svg height='100px' width='100px'  fill="#ff7e67" version="1.1" x="0px" y="0px" viewBox="0 0 64 64" style="enable-background:new 0 0 64 64;" ><g><path d="M52,13c-1.388,0-2.764,0.267-4.053,0.78C47.328,6.63,41.309,1,34,1c-6.112,0-11.528,4.042-13.346,9.78   C19.506,10.267,18.264,10,17,10c-4.962,0-9,4.038-9,9c0,0.021,0,0.042,0,0.062C4.059,19.556,1,22.927,1,27c0,4.411,3.589,8,8,8h31   v-2H9c-3.309,0-6-2.691-6-6s2.691-6,5.961-6.001c0.313,0.026,0.652-0.101,0.858-0.334c0.19-0.215,0.278-0.502,0.242-0.787   C10.026,19.59,10,19.298,10,19c0-3.86,3.14-7,7-7c1.329,0,2.628,0.381,3.757,1.101c0.275,0.175,0.621,0.206,0.923,0.08   c0.302-0.126,0.523-0.393,0.592-0.713C23.452,6.982,28.384,3,34,3c6.617,0,12,5.383,12,12l-0.018,0.332   c-0.01,0.363,0.177,0.703,0.489,0.888c0.312,0.185,0.7,0.187,1.014,0.004C48.86,15.423,50.422,15,52,15c4.962,0,9,4.038,9,9   s-4.038,9-9,9h-2v2h2c6.065,0,11-4.935,11-11S58.065,13,52,13z"></path><path d="M20,48.343V48c0-0.553-0.448-1-1-1s-1,0.447-1,1v0.343c0,2.091-0.814,4.057-2.293,5.536C14.622,54.964,14,56.466,14,58   c0,2.757,2.243,5,5,5s5-2.243,5-5c0-1.534-0.622-3.036-1.707-4.121C20.814,52.399,20,50.434,20,48.343z M19,61   c-1.654,0-3-1.346-3-3c0-1.008,0.409-1.994,1.121-2.707c0.777-0.777,1.408-1.661,1.879-2.619c0.471,0.958,1.102,1.842,1.879,2.619   C21.591,56.006,22,56.992,22,58C22,59.654,20.654,61,19,61z"></path><path d="M40,48.343V48c0-0.553-0.448-1-1-1s-1,0.447-1,1v0.343c0,2.091-0.814,4.057-2.293,5.536C34.622,54.964,34,56.466,34,58   c0,2.757,2.243,5,5,5s5-2.243,5-5c0-1.534-0.622-3.036-1.707-4.121C40.814,52.399,40,50.434,40,48.343z M39,61   c-1.654,0-3-1.346-3-3c0-1.008,0.409-1.994,1.121-2.707c0.777-0.777,1.408-1.661,1.879-2.619c0.471,0.958,1.102,1.842,1.879,2.619   C41.591,56.006,42,56.992,42,58C42,59.654,40.654,61,39,61z"></path><path d="M32.293,43.879C30.814,42.399,30,40.434,30,38.343V38c0-0.553-0.448-1-1-1s-1,0.447-1,1v0.343   c0,2.091-0.814,4.057-2.293,5.536C24.622,44.964,24,46.466,24,48c0,2.757,2.243,5,5,5s5-2.243,5-5   C34,46.466,33.378,44.964,32.293,43.879z M29,51c-1.654,0-3-1.346-3-3c0-1.008,0.409-1.994,1.121-2.707   c0.777-0.777,1.408-1.661,1.879-2.619c0.471,0.958,1.102,1.842,1.879,2.619C31.591,46.006,32,46.992,32,48   C32,49.654,30.654,51,29,51z"></path><path d="M50,38.343V38c0-0.553-0.448-1-1-1s-1,0.447-1,1v0.343c0,2.091-0.814,4.057-2.293,5.536C44.622,44.964,44,46.466,44,48   c0,2.757,2.243,5,5,5s5-2.243,5-5c0-1.534-0.622-3.036-1.707-4.121C50.814,42.399,50,40.434,50,38.343z M49,51   c-1.654,0-3-1.346-3-3c0-1.008,0.409-1.994,1.121-2.707c0.777-0.777,1.408-1.661,1.879-2.619c0.471,0.958,1.102,1.842,1.879,2.619   C51.591,46.006,52,46.992,52,48C52,49.654,50.654,51,49,51z"></path><path d="M26,21v-2c0-2.206-1.794-4-4-4h-4c-2.206,0-4,1.794-4,4v8c0,2.206,1.794,4,4,4h4c2.206,0,4-1.794,4-4v-2h-2v2   c0,1.103-0.897,2-2,2h-4c-1.103,0-2-0.897-2-2v-8c0-1.103,0.897-2,2-2h4c1.103,0,2,0.897,2,2v2H26z"></path><path d="M36,15h-4c-2.206,0-4,1.794-4,4v8c0,2.206,1.794,4,4,4h4c2.206,0,4-1.794,4-4v-8C40,16.794,38.206,15,36,15z M38,27   c0,1.103-0.897,2-2,2h-4c-1.103,0-2-0.897-2-2v-8c0-1.103,0.897-2,2-2h4c1.103,0,2,0.897,2,2V27z"></path><path d="M43,31c-0.552,0-1,0.448-1,1v4c0,0.553,0.448,1,1,1h5v-2h-4v-2h3c0.552,0,1-0.448,1-1v-4c0-0.552-0.448-1-1-1h-5v2h4v2H43z   "></path></g></svg>
