<svg height='100px' width='100px'  fill="#FFFFFF" xmlns="http://www.w3.org/2000/svg" xmlns:xlink="http://www.w3.org/1999/xlink" version="1.0" x="0px" y="0px" viewBox="0 0 100 100" enable-background="new 0 0 100 100" xml:space="preserve"><path d="M43,36c0,2.2,1.8,4,4,4v39c0,1.7,1.3,3,3,3s3-1.3,3-3V40c2.2,0,4-1.8,4-4V19c0-0.6-0.4-1-1-1s-1,0.4-1,1v10c0,0.6-0.5,1-1,1  s-1-0.4-1-1V19c0-0.6-0.4-1-1-1s-1,0.4-1,1v10c0,0.6-0.4,1-1,1c-0.5,0-1-0.4-1-1V19c0-0.6-0.4-1-1-1s-1,0.4-1,1v10c0,0.6-0.4,1-1,1  s-1-0.4-1-1V19c0-0.6-0.4-1-1-1s-1,0.4-1,1V36z M55,36c0,1.1-0.9,2-2,2c-1.2,0-2,0.8-2,2v39c0,0.6-0.4,1-1,1s-1-0.4-1-1V40  c0-1.2-0.8-2-2-2c-1.1,0-2-0.9-2-2v-4.1c0.3,0.1,0.6,0.1,1,0.1c0.7,0,1.5-0.2,2-0.7c0.5,0.5,1.2,0.7,2,0.7c0.7,0,1.5-0.2,2-0.7  c0.5,0.5,1.2,0.7,2,0.7c0.3,0,0.7,0,1-0.1V36z"></path></svg>