<svg height='100px' width='100px'  fill="#FFFFFF" viewBox="0 0 90 90" version="1.1" x="0px" y="0px"><title>menu</title><desc>Created with Sketch.</desc><g stroke="none" stroke-width="1" fill="none" fill-rule="evenodd"><g fill="#FFFFFF"><path d="M45,90 C69.8528137,90 90,69.8528137 90,45 C90,20.1471863 69.8528137,0 45,0 C20.1471863,0 0,20.1471863 0,45 C0,69.8528137 20.1471863,90 45,90 Z M45,86 C67.6436747,86 86,67.6436747 86,45 C86,22.3563253 67.6436747,4 45,4 C22.3563253,4 4,22.3563253 4,45 C4,67.6436747 22.3563253,86 45,86 Z"></path><rect x="22" y="32" width="5" height="4" rx="2"></rect><rect x="33" y="32" width="30" height="4" rx="2"></rect><rect x="22" y="43" width="5" height="4" rx="2"></rect><rect x="33" y="43" width="35" height="4" rx="2"></rect><rect  x="22" y="54" width="5" height="4" rx="2"></rect><rect  x="33" y="54" width="30" height="4" rx="2"></rect></g></g></svg>
