<svg height='100px' width='100px'  fill="#ff7e67" xmlns="http://www.w3.org/2000/svg" viewBox="0 0 100 100" x="0px" y="0px"><title>B__60</title><path d="M85.25671,9.30505A14.74917,14.74917,0,0,0,74.38647,5.00763l-16.56689.53625a14.70485,14.70485,0,0,0-9.95605,4.314L7.61292,50.10852a8.94487,8.94487,0,0,0,0,12.636L37.25549,92.38708a8.94487,8.94487,0,0,0,12.636,0L90.14209,52.13635a14.70469,14.70469,0,0,0,4.314-9.95587l.53626-16.567A14.74817,14.74817,0,0,0,90.695,14.74329ZM89.4585,42.01819a9.72122,9.72122,0,0,1-2.85205,6.58246L46.35571,88.85138a3.93858,3.93858,0,0,1-5.56445,0L11.14868,59.2088a3.93872,3.93872,0,0,1,0-5.56457L51.39929,13.39355a9.71915,9.71915,0,0,1,6.58216-2.85168l16.56738-.53656A9.73228,9.73228,0,0,1,81.721,12.84076l5.43823,5.43817a9.733,9.733,0,0,1,2.83545,7.17224ZM63.23462,21.84161a10.55516,10.55516,0,1,0,14.92725,0A10.56674,10.56674,0,0,0,63.23462,21.84161Zm11.3916,11.39154a5.555,5.555,0,1,1,0-7.85589A5.56146,5.56146,0,0,1,74.62622,33.23315Z"></path></svg>
