<svg height='100px' width='100px'  fill="#ff7e67" version="1.1" x="0px" y="0px" viewBox="0 0 100 100" style="enable-background:new 0 0 100 100;"><g><g><g><path d="M95.3,84.4l-4.1-2.4l3.4-1.6c0.8-0.4,1.2-1.3,1-2.1c-0.3-0.9-1.4-1.4-2.3-1L87.7,80l-4.3-2.5c-1.2-0.7-1.2-2.4,0-3.1     l4.3-2.5l5.7,2.6c0.2,0.1,0.5,0.2,0.7,0.2c0.7,0,1.3-0.4,1.6-1.1c0.3-0.8-0.2-1.7-1-2.1l-3.4-1.6l4.1-2.4     c0.8-0.4,1.1-1.4,0.8-2.2c-0.4-0.9-1.5-1.3-2.4-0.8L89.6,67l0.4-3.7c0.1-0.9-0.5-1.7-1.3-1.9c-1-0.2-1.9,0.5-2,1.5L86,69.1     l-4.3,2.5C80.5,72.2,79,71.4,79,70v-5l5-3.6c0.7-0.5,1-1.5,0.5-2.2c-0.5-0.9-1.6-1.1-2.4-0.5L79,60.9v-4.7c0-0.9-0.6-1.7-1.5-1.7     c-1-0.1-1.8,0.7-1.8,1.7v4.8l-3.1-2.2c-0.7-0.5-1.7-0.4-2.3,0.2c-0.7,0.8-0.5,1.9,0.3,2.5l5.1,3.6v5c0,1.4-1.5,2.2-2.7,1.5     l-4.3-2.5l-0.6-6.1c-0.1-0.9-0.8-1.6-1.7-1.6c-1,0-1.8,0.9-1.7,1.8l0.4,3.8l-4.1-2.4c-0.8-0.4-1.8-0.3-2.3,0.4     c-0.6,0.8-0.3,1.9,0.5,2.4l4.1,2.4l-3.4,1.6c-0.8,0.4-1.2,1.3-1,2.1c0.2,0.7,0.9,1.1,1.6,1.1c0.2,0,0.5,0,0.7-0.2L67,72l4.3,2.5     c1.2,0.7,1.2,2.4,0,3.1L67,80l-5.7-2.6c-0.9-0.4-2,0-2.3,1c-0.3,0.8,0.2,1.7,1,2.1l3.4,1.6l-4.1,2.4c-0.7,0.4-1.1,1.3-0.8,2.1     c0.3,0.7,0.9,1.1,1.6,1.1c0.3,0,0.6-0.1,0.8-0.2l4.1-2.4l-0.4,3.8c-0.1,0.9,0.5,1.7,1.4,1.9c0.1,0,0.2,0,0.2,0     c0.9,0,1.6-0.7,1.7-1.5l0.6-6.2l4.3-2.5c1.2-0.7,2.7,0.2,2.7,1.5v5l-5,3.6c-0.7,0.5-1,1.5-0.5,2.2c0.3,0.5,0.9,0.8,1.5,0.8     c0.3,0,0.7-0.1,1-0.3l3.1-2.2v4.7c0,0.9,0.6,1.7,1.5,1.7c1,0.1,1.8-0.7,1.8-1.7V91l3.1,2.2c0.3,0.2,0.6,0.3,1,0.3     c0.6,0,1.1-0.3,1.5-0.8C85,92,84.7,91,84,90.5l-5-3.6v-5c0-1.4,1.5-2.2,2.7-1.5l4.3,2.5l0.6,6.2c0.1,0.9,0.8,1.5,1.7,1.5     c0.1,0,0.2,0,0.2,0c0.9-0.1,1.5-1,1.4-1.9L89.5,85l4.1,2.4c0.3,0.2,0.6,0.2,0.8,0.2c0.7,0,1.3-0.4,1.6-1.1     C96.4,85.7,96,84.8,95.3,84.4z"></path><circle cx="25.9" cy="24.6" r="10"></circle><path d="M25.9,11.5c1.2,0,2.1-0.9,2.1-2.1V4.6c0-1.2-0.9-2.1-2.1-2.1c-1.2,0-2.1,0.9-2.1,2.1v4.8C23.8,10.6,24.8,11.5,25.9,11.5z     "></path><path d="M13.7,15.4c0.4,0.4,0.9,0.6,1.5,0.6c0.5,0,1.1-0.2,1.5-0.6c0.8-0.8,0.8-2.1,0-3L13.2,9c-0.8-0.8-2.1-0.8-3,0     c-0.8,0.8-0.8,2.1,0,3L13.7,15.4z"></path><path d="M10.7,26.7c1.2,0,2.1-0.9,2.1-2.1c0-1.2-0.9-2.1-2.1-2.1H5.9c-1.2,0-2.1,0.9-2.1,2.1c0,1.2,0.9,2.1,2.1,2.1H10.7z"></path><path d="M13.7,33.9l-3.4,3.4c-0.8,0.8-0.8,2.1,0,3c0.4,0.4,0.9,0.6,1.5,0.6c0.5,0,1.1-0.2,1.5-0.6l3.4-3.4c0.8-0.8,0.8-2.1,0-3     C15.8,33.1,14.5,33.1,13.7,33.9z"></path><path d="M23.8,39.8v4.8c0,1.2,0.9,2.1,2.1,2.1c1.2,0,2.1-0.9,2.1-2.1v-4.8c0-1.2-0.9-2.1-2.1-2.1C24.8,37.7,23.8,38.6,23.8,39.8z     "></path><path d="M35.2,33.9c-0.8,0.8-0.8,2.1,0,3l3.4,3.4c0.4,0.4,0.9,0.6,1.5,0.6c0.5,0,1.1-0.2,1.5-0.6c0.8-0.8,0.8-2.1,0-3l-3.4-3.4     C37.3,33.1,36,33.1,35.2,33.9z"></path><path d="M45.9,22.5h-4.8c-1.2,0-2.1,0.9-2.1,2.1c0,1.2,0.9,2.1,2.1,2.1h4.8c1.2,0,2.1-0.9,2.1-2.1C48,23.5,47.1,22.5,45.9,22.5z"></path><path d="M36.7,16c0.5,0,1.1-0.2,1.5-0.6l3.4-3.4c0.8-0.8,0.8-2.1,0-3c-0.8-0.8-2.1-0.8-3,0l-3.4,3.4c-0.8,0.8-0.8,2.1,0,3     C35.6,15.8,36.1,16,36.7,16z"></path><path d="M63.8,46c0.2,0.1,0.5,0.1,0.7,0.1c0.7,0,1.5-0.4,1.8-1.2c1.3-3.3,3-6.1,4.8-8.5c4.9,2.6,11,3.3,15.3,0.5     c7.1-4.8,8.5-21.8,8-31.8c-0.1-1.8-2.2-2.6-3.5-1.3C80.4,14.2,64.4,13.9,63.3,25.1c-0.2,2.4,0.6,4.8,2.2,6.8     c7.6-7.6,15.7-10.2,16.1-10.4c0.1,0,0.2,0,0.3-0.1c-2.2,1.2-13.4,7.8-19.2,22C62.3,44.5,62.8,45.6,63.8,46z"></path><path d="M40.4,71.6c-1.5,0-3.9,0.4-6.2,1c2-1.1,4-2.6,5.1-3.7c2.5-2.5,3.1-5.9,1.4-7.7c-1.7-1.7-5.2-1.1-7.7,1.4     c-1.1,1.1-2.5,3-3.7,5.1c0.6-2.2,1-4.6,1-6.2c0-3.5-2-6.4-4.4-6.4s-4.4,2.9-4.4,6.4c0,1.5,0.4,3.9,1,6.2c-1.1-2-2.6-4-3.7-5.1     c-2.5-2.5-5.9-3.1-7.7-1.4c-1.7,1.7-1.1,5.2,1.4,7.7c1.1,1.1,3,2.5,5.1,3.7c-2.2-0.6-4.7-1-6.2-1c-3.5,0-6.4,2-6.4,4.4     c0,2.5,2.9,4.4,6.4,4.4c1.5,0,3.9-0.4,6.2-1c-2,1.1-4,2.6-5.1,3.7c-2.5,2.5-3.1,5.9-1.4,7.7c1.7,1.7,5.2,1.1,7.7-1.4     c1.1-1.1,2.5-3,3.7-5.1c-0.6,2.2-1,4.6-1,6.2c0,3.5,2,6.4,4.4,6.4c2.5,0,4.4-2.9,4.4-6.4c0-1.5-0.4-3.9-1-6.2     c1.1,2,2.6,4,3.7,5.1c2.5,2.5,5.9,3.1,7.7,1.4c1.7-1.7,1.1-5.2-1.4-7.7c-1.1-1.1-3-2.5-5.1-3.7c2.2,0.6,4.7,1,6.2,1     c3.5,0,6.4-2,6.4-4.4C46.8,73.6,43.9,71.6,40.4,71.6z M25.9,81.3c-2.9,0-5.2-2.3-5.2-5.2c0-2.9,2.3-5.2,5.2-5.2     c2.9,0,5.2,2.3,5.2,5.2C31.2,78.9,28.8,81.3,25.9,81.3z"></path></g></g></g></svg>
